<?xml version="1.0" standalone="no"?>
<!DOCTYPE svg PUBLIC "-//W3C//DTD SVG 20010904//EN"
 "http://www.w3.org/TR/2001/REC-SVG-20010904/DTD/svg10.dtd">
<svg version="1.0" xmlns="http://www.w3.org/2000/svg"
 width="700.000000pt" height="700.000000pt" viewBox="0 0 700.000000 700.000000"
 preserveAspectRatio="xMidYMid meet">
<metadata>
Created by potrace 1.14, written by Peter Selinger 2001-2017
</metadata>
<g transform="translate(0.000000,700.000000) scale(0.100000,-0.100000)"
fill="#000000" stroke="none">
<path d="M3462 6988 c-24 -7 -41 -22 -66 -61 -147 -230 -3362 -5501 -3374
-5532 -25 -60 -22 -177 7 -240 33 -74 90 -126 246 -224 1400 -878 3080 -1147
4680 -751 642 159 1239 414 1796 766 186 118 242 195 243 334 1 48 -5 89 -16
115 -17 42 -3380 5550 -3402 5573 -19 20 -76 30 -114 20z m265 -690 c125 -210
218 -377 213 -382 -4 -4 -61 -6 -127 -4 -104 3 -130 8 -215 38 l-98 34 -97
-34 c-86 -30 -112 -35 -216 -38 -66 -2 -123 0 -127 4 -8 8 428 754 440 754 3
0 105 -168 227 -372z m-132 -578 c100 -31 281 -38 399 -16 48 10 91 15 94 12
3 -3 488 -795 1077 -1758 743 -1215 1069 -1757 1063 -1765 -6 -7 -60 -46 -121
-87 -365 -244 -765 -438 -1176 -570 -660 -212 -1389 -273 -2094 -176 -684 95
-1334 343 -1928 736 -70 46 -131 90 -136 96 -7 9 290 503 1062 1766 590 964
1075 1755 1078 1758 2 3 42 -2 87 -10 144 -28 328 -16 445 27 45 17 53 17 150
-13z m2968 -4057 c112 -186 208 -348 211 -360 13 -43 -18 -90 -96 -140 -264
-171 -598 -348 -898 -476 -253 -108 -254 -103 -5 21 308 153 632 341 714 416
62 57 89 159 61 232 -6 15 -81 142 -166 281 -85 138 -156 258 -159 265 -4 11
107 98 126 98 3 0 99 -152 212 -337z m-1023 -1073 c-8 -5 -19 -10 -25 -10 -5
0 -3 5 5 10 8 5 20 10 25 10 6 0 3 -5 -5 -10z"/>
<path d="M3398 5239 c-115 -27 -234 -123 -288 -232 -156 -316 102 -672 453
-625 234 31 407 263 369 494 -42 253 -289 421 -534 363z"/>
<path d="M2534 4146 c-109 -25 -195 -81 -260 -168 -160 -218 -82 -538 160
-652 293 -139 626 71 626 394 0 276 -260 486 -526 426z"/>
<path d="M4284 4146 c-109 -25 -195 -81 -260 -168 -160 -218 -82 -538 160
-652 293 -139 626 71 626 394 0 276 -260 486 -526 426z"/>
<path d="M1835 2932 c-208 -72 -333 -275 -297 -483 38 -218 214 -369 433 -369
315 0 526 330 394 617 -73 160 -223 253 -404 253 -45 -1 -96 -8 -126 -18z"/>
<path d="M4897 2931 c-159 -52 -271 -185 -298 -353 -25 -156 52 -334 183 -421
272 -180 625 -29 680 292 32 186 -72 381 -249 463 -59 28 -80 33 -163 35 -73
2 -109 -1 -153 -16z"/>
<path d="M3430 2619 c-86 -14 -190 -70 -248 -134 -226 -248 -112 -634 213
-721 242 -65 495 105 537 360 47 284 -214 542 -502 495z"/>
</g>
</svg>
